<svg width="260" height="260" viewBox="0 0 260 260" fill="none" xmlns="http://www.w3.org/2000/svg">
  <rect width="260" height="260" fill="#0083FC"/>
  <path d="M39.2346 169.536C38.5221 169.536 37.8808 169.283 37.3107 168.777C36.8119 168.199 36.5625 167.548 36.5625 166.825V96.3453C36.5625 95.5502 36.8119 94.8996 37.3107 94.3936C37.8808 93.8876 38.5221 93.6346 39.2346 93.6346H52.7022C53.486 93.6346 54.1273 93.8876 54.6261 94.3936C55.1249 94.8996 55.3743 95.5502 55.3743 96.3453V120.417L75.1481 95.6948C76.0032 94.3213 77.3927 93.6346 79.3167 93.6346H94.7081C95.3495 93.6346 95.8839 93.8876 96.3114 94.3936C96.739 94.8273 96.9527 95.3333 96.9527 95.9116C96.9527 96.4176 96.8458 96.8513 96.6321 97.2128L70.9796 129.959L98.556 165.958C98.841 166.247 98.9836 166.681 98.9836 167.259C98.9836 167.837 98.7698 168.379 98.3422 168.885C97.9147 169.319 97.3803 169.536 96.739 169.536H80.813C79.1029 169.536 77.6777 168.813 76.5376 167.367L55.3743 140.585V166.825C55.3743 167.62 55.1249 168.271 54.6261 168.777C54.1273 169.283 53.486 169.536 52.7022 169.536H39.2346Z" fill="white"/>
  <path d="M104.765 178.644C104.123 178.644 103.553 178.391 103.054 177.885C102.627 177.451 102.413 176.945 102.413 176.367C102.413 176.222 102.52 175.861 102.734 175.283L138.861 86.9119C139.716 85.177 140.999 84.3096 142.709 84.3096H152.329C152.97 84.3096 153.504 84.5626 153.932 85.0686C154.359 85.5023 154.573 86.0083 154.573 86.5866C154.573 86.948 154.502 87.3095 154.359 87.6709L118.018 176.042C117.306 177.777 116.023 178.644 114.17 178.644H104.765Z" fill="white"/>
  <path d="M192.391 170.62C182.201 170.62 174.22 168.126 168.448 163.139C162.748 158.078 159.719 150.777 159.363 141.236C159.292 139.284 159.256 136.103 159.256 131.694C159.256 127.212 159.292 123.959 159.363 121.935C159.719 112.538 162.819 105.309 168.662 100.249C174.505 95.1165 182.415 92.5503 192.391 92.5503C198.661 92.5503 204.29 93.6346 209.278 95.8032C214.266 97.8995 218.186 100.936 221.036 104.911C223.957 108.815 225.454 113.405 225.525 118.682V118.899C225.525 119.477 225.276 119.983 224.777 120.417C224.349 120.778 223.85 120.959 223.28 120.959H208.851C207.925 120.959 207.212 120.778 206.713 120.417C206.214 119.983 205.787 119.224 205.431 118.14C204.433 114.453 202.865 111.887 200.728 110.441C198.59 108.923 195.775 108.164 192.284 108.164C183.875 108.164 179.529 112.935 179.244 122.477C179.172 124.429 179.137 127.429 179.137 131.477C179.137 135.525 179.172 138.597 179.244 140.693C179.529 150.235 183.875 155.006 192.284 155.006C195.775 155.006 198.625 154.247 200.834 152.729C203.043 151.139 204.575 148.573 205.431 145.031C205.716 143.946 206.107 143.223 206.606 142.862C207.105 142.428 207.853 142.211 208.851 142.211H223.28C223.922 142.211 224.456 142.428 224.884 142.862C225.382 143.296 225.596 143.838 225.525 144.488C225.454 149.765 223.957 154.392 221.036 158.368C218.186 162.271 214.266 165.307 209.278 167.476C204.29 169.572 198.661 170.62 192.391 170.62Z" fill="white"/>
</svg>
