<svg width="154" height="34" viewBox="0 0 154 34" fill="none" xmlns="http://www.w3.org/2000/svg">
<g clip-path="url(#clip0_915_3037)">
<path fill-rule="evenodd" clip-rule="evenodd" d="M138.772 33.875C135.987 33.875 133.592 33.4531 131.589 32.6094C129.586 31.7656 128.068 30.6562 127.035 29.2812C126.002 27.9062 125.454 26.4219 125.391 24.8281C125.391 24.5469 125.485 24.3125 125.673 24.125C125.861 23.9375 126.096 23.8437 126.377 23.8437H130.556C130.932 23.8437 131.213 23.9219 131.401 24.0781C131.62 24.2031 131.824 24.4219 132.011 24.7344C132.324 25.7969 133.044 26.6875 134.171 27.4062C135.298 28.125 136.832 28.4844 138.772 28.4844C140.995 28.4844 142.669 28.125 143.796 27.4062C144.923 26.6562 145.486 25.625 145.486 24.3125C145.486 23.4375 145.189 22.7187 144.594 22.1562C144.031 21.5937 143.17 21.1094 142.012 20.7031C140.885 20.2969 139.195 19.7969 136.941 19.2031C133.248 18.3281 130.54 17.1719 128.819 15.7344C127.128 14.2656 126.283 12.1875 126.283 9.5C126.283 7.6875 126.769 6.07812 127.739 4.67187C128.74 3.26562 130.165 2.15625 132.011 1.34375C133.889 0.531248 136.065 0.124998 138.538 0.124998C141.104 0.124998 143.327 0.578122 145.205 1.48437C147.083 2.39062 148.507 3.53125 149.477 4.90625C150.479 6.25 151.011 7.59375 151.074 8.9375C151.074 9.21875 150.98 9.45312 150.792 9.64062C150.604 9.82812 150.369 9.92187 150.088 9.92187H145.721C145.064 9.92187 144.61 9.625 144.36 9.03125C144.172 8.03125 143.546 7.20312 142.482 6.54687C141.417 5.85937 140.103 5.51562 138.538 5.51562C136.785 5.51562 135.408 5.84375 134.406 6.5C133.404 7.15625 132.904 8.10937 132.904 9.35937C132.904 10.2344 133.154 10.9531 133.655 11.5156C134.156 12.0781 134.938 12.5781 136.002 13.0156C137.098 13.4531 138.663 13.9375 140.697 14.4687C143.452 15.0937 145.643 15.7969 147.271 16.5781C148.93 17.3594 150.15 18.3437 150.933 19.5312C151.715 20.7187 152.107 22.2344 152.107 24.0781C152.107 26.0781 151.543 27.8281 150.416 29.3281C149.321 30.7969 147.756 31.9219 145.721 32.7031C143.718 33.4844 141.402 33.875 138.772 33.875ZM31.5512 33.5C31.7362 33.5 31.9134 33.4666 32.0771 33.4054C32.3959 33.3956 32.6588 33.3022 32.8659 33.125C33.085 32.9062 33.1945 32.625 33.1945 32.2812V12.125L46.6695 32.6562C47.0451 33.1562 47.499 33.4062 48.0311 33.4062H51.6933C52.0063 33.4062 52.2724 33.2969 52.4915 33.0781C52.7106 32.8594 52.8201 32.5781 52.8201 32.2344V1.76562C52.8201 1.42187 52.7106 1.14062 52.4915 0.921874C52.2724 0.703123 51.9907 0.593747 51.6463 0.593747H47.7024C47.3581 0.593747 47.0764 0.703123 46.8573 0.921874C46.6695 1.14062 46.5756 1.42187 46.5756 1.76562V22.3437L33.0537 1.34375C32.8972 1.125 32.725 0.953123 32.5372 0.828122C32.4584 0.762587 32.3631 0.710795 32.2513 0.672747C32.0423 0.562443 31.804 0.5 31.5512 0.5H1.50244C0.672665 0.5 0 1.17267 0 2.00244V31.9976C0 32.8273 0.672663 33.5 1.50244 33.5H31.5512ZM61.2728 33.4062C60.9598 33.4062 60.6937 33.2969 60.4746 33.0781C60.2555 32.8594 60.146 32.5937 60.146 32.2812V1.76562C60.146 1.42187 60.2399 1.14062 60.4277 0.921874C60.6468 0.703123 60.9285 0.593747 61.2728 0.593747H81.9314C82.2757 0.593747 82.5574 0.703123 82.7765 0.921874C82.9956 1.14062 83.1051 1.42187 83.1051 1.76562V4.85937C83.1051 5.20312 82.9956 5.48437 82.7765 5.70312C82.5574 5.89062 82.2757 5.98437 81.9314 5.98437H66.4844V14.2812H80.8984C81.2427 14.2812 81.5244 14.3906 81.7435 14.6094C81.9626 14.7969 82.0722 15.0625 82.0722 15.4062V18.3125C82.0722 18.6562 81.9626 18.9375 81.7435 19.1562C81.5244 19.3437 81.2427 19.4375 80.8984 19.4375H66.4844V28.0156H82.307C82.6513 28.0156 82.933 28.125 83.1521 28.3437C83.3712 28.5625 83.4807 28.8437 83.4807 29.1875V32.2812C83.4807 32.625 83.3712 32.9062 83.1521 33.125C82.933 33.3125 82.6513 33.4062 82.307 33.4062H61.2728ZM93.6255 33.0312C93.9072 33.2812 94.2828 33.4062 94.7523 33.4062H97.8981C98.7119 33.4062 99.2753 33.0156 99.5883 32.2344L104.847 16.5781L110.105 32.2344C110.199 32.5781 110.387 32.8594 110.669 33.0781C110.951 33.2969 111.31 33.4062 111.749 33.4062H114.894C115.833 33.4062 116.381 32.9375 116.538 32L122.125 1.95312C122.156 1.85937 122.172 1.73437 122.172 1.57812C122.172 1.29687 122.078 1.0625 121.89 0.874999C121.702 0.687498 121.483 0.593747 121.233 0.593747H117.101C116.694 0.593747 116.381 0.671872 116.162 0.828122C115.974 0.953123 115.849 1.1875 115.786 1.53125L111.89 22.7187L107.617 9.03125C107.398 8.25 106.897 7.85937 106.115 7.85937H103.579C102.859 7.85937 102.343 8.25 102.03 9.03125L97.8042 22.7656L93.9072 1.53125C93.8133 0.906248 93.3751 0.593747 92.5926 0.593747H88.4609C88.2105 0.593747 87.9757 0.687498 87.7566 0.874999C87.5688 1.0625 87.4749 1.29687 87.4749 1.57812L87.5218 1.95312L93.109 32C93.1716 32.4375 93.3438 32.7812 93.6255 33.0312ZM13.1831 23C13.1015 23 13.029 22.9678 12.9655 22.9034C12.9112 22.8483 12.884 22.7839 12.884 22.7103C12.884 22.692 12.8976 22.646 12.9248 22.5724L17.5204 11.331C17.6292 11.1103 17.7923 11 18.0099 11H19.2336C19.3151 11 19.3831 11.0322 19.4375 11.0965C19.4919 11.1517 19.5191 11.2161 19.5191 11.2897C19.5191 11.3356 19.51 11.3816 19.4919 11.4276L14.8691 22.669C14.7784 22.8897 14.6153 23 14.3796 23H13.1831ZM4.84723 21.8414C4.75659 21.8414 4.67501 21.8092 4.60249 21.7448C4.53904 21.6713 4.50732 21.5885 4.50732 21.4965V12.531C4.50732 12.4299 4.53904 12.3471 4.60249 12.2828C4.67501 12.2184 4.75659 12.1862 4.84723 12.1862H6.5604C6.6601 12.1862 6.74168 12.2184 6.80513 12.2828C6.86859 12.3471 6.90031 12.4299 6.90031 12.531V15.5931L9.41567 12.4483C9.52444 12.2736 9.7012 12.1862 9.94594 12.1862H11.9038C11.9854 12.1862 12.0534 12.2184 12.1078 12.2828C12.1622 12.3379 12.1894 12.4023 12.1894 12.4759C12.1894 12.5402 12.1758 12.5954 12.1486 12.6414L8.88541 16.8069L12.3933 21.3862C12.4296 21.423 12.4477 21.4782 12.4477 21.5517C12.4477 21.6253 12.4205 21.6943 12.3661 21.7586C12.3117 21.8138 12.2438 21.8414 12.1622 21.8414H10.1363C9.91875 21.8414 9.73746 21.7494 9.59243 21.5655L6.90031 18.1586V21.4965C6.90031 21.5977 6.86859 21.6805 6.80513 21.7448C6.74168 21.8092 6.6601 21.8414 6.5604 21.8414H4.84723ZM21.2841 21.0276C22.0183 21.6621 23.0335 21.9793 24.3297 21.9793C25.1274 21.9793 25.8435 21.846 26.478 21.5793C27.1125 21.3034 27.611 20.9172 27.9736 20.4207C28.3452 19.9149 28.5356 19.3264 28.5446 18.6552C28.5537 18.5724 28.5265 18.5034 28.4631 18.4483C28.4087 18.3931 28.3407 18.3655 28.2591 18.3655H26.4236C26.2967 18.3655 26.2015 18.3931 26.1381 18.4483C26.0746 18.4943 26.0247 18.5862 25.9885 18.7241C25.8797 19.1747 25.6848 19.5011 25.4038 19.7034C25.1228 19.8966 24.7603 19.9931 24.3161 19.9931C23.2465 19.9931 22.6936 19.3862 22.6573 18.1724C22.6483 17.9057 22.6437 17.5149 22.6437 17C22.6437 16.4851 22.6483 16.1034 22.6573 15.8552C22.6936 14.6414 23.2465 14.0345 24.3161 14.0345C24.7603 14.0345 25.1183 14.131 25.3902 14.3241C25.6622 14.508 25.8616 14.8345 25.9885 15.3034C26.0338 15.4414 26.0882 15.5379 26.1516 15.5931C26.2151 15.6391 26.3057 15.6621 26.4236 15.6621H28.2591C28.3316 15.6621 28.3951 15.6391 28.4495 15.5931C28.5129 15.5379 28.5446 15.4736 28.5446 15.4V15.3724C28.5356 14.7011 28.3452 14.1172 27.9736 13.6207C27.611 13.1149 27.1125 12.7287 26.478 12.4621C25.8435 12.1862 25.1274 12.0483 24.3297 12.0483C23.0607 12.0483 22.0546 12.3747 21.3113 13.0276C20.568 13.6713 20.1737 14.5908 20.1284 15.7862C20.1193 16.0437 20.1148 16.4575 20.1148 17.0276C20.1148 17.5885 20.1193 17.9931 20.1284 18.2414C20.1737 19.4552 20.5589 20.3839 21.2841 21.0276Z" fill="#0083FC"/>
</g>
<defs>
<clipPath id="clip0_915_3037">
<rect width="154" height="33" fill="white" transform="translate(0 0.5)"/>
</clipPath>
</defs>
</svg>
